<svg aria-hidden="true" style="position: absolute; width: 0; height: 0; overflow: hidden;" version="1.1" xmlns="http://www.w3.org/2000/svg" xmlns:xlink="http://www.w3.org/1999/xlink">
<defs>
<symbol id="icon-icon-previous" viewBox="0 0 21 32">
<path stroke-linejoin="miter" stroke-linecap="butt" stroke-miterlimit="4" stroke-width="5.3333" d="M19.556 1.778l-14.222 14.222 14.222 14.222"></path>
</symbol>
<symbol id="icon-icon-plus" viewBox="0 0 32 32">
<path d="M32 18.728v-5.456c0-0.002 0-0.003 0-0.005 0-0.944-0.765-1.709-1.709-1.709-0.002 0-0.004 0-0.006 0h-9.84v-9.843c0-0.002 0-0.003 0-0.005 0-0.944-0.765-1.709-1.709-1.709-0.004 0-0.008 0-0.011 0h-5.453c-0.002 0-0.003 0-0.005 0-0.944 0-1.709 0.765-1.709 1.709 0 0.002 0 0.004 0 0.006v-0 9.84h-9.843c-0.002 0-0.003 0-0.005 0-0.944 0-1.709 0.765-1.709 1.709 0 0.004 0 0.008 0 0.011v-0.001 5.456c0 0.949 0.765 1.715 1.715 1.715h9.84v9.843c0 0.949 0.768 1.715 1.717 1.715h5.456c0.002 0 0.003 0 0.005 0 0.944 0 1.709-0.765 1.709-1.709 0-0.002 0-0.004 0-0.006v0-9.84h9.843c0.002 0 0.003 0 0.005 0 0.944 0 1.709-0.765 1.709-1.709 0-0.005-0-0.009-0-0.014v0.001z"></path>
</symbol>
<symbol id="icon-icon-next" viewBox="0 0 23 32">
<path stroke-linejoin="miter" stroke-linecap="butt" stroke-miterlimit="4" stroke-width="5.3333" d="M3.556 1.778l14.222 14.222-14.222 14.222"></path>
</symbol>
<symbol id="icon-icon-minus" viewBox="0 0 96 32">
<path d="M90.856 26.656c0.005 0 0.010 0 0.016 0 2.832 0 5.128-2.296 5.128-5.128 0-0.003 0-0.006 0-0.008v0-16.376c0-0.005 0-0.010 0-0.016 0-2.832-2.296-5.128-5.128-5.128-0.006 0-0.011 0-0.017 0h-85.711c-0.005-0-0.010-0-0.016-0-2.832 0-5.128 2.296-5.128 5.128 0 0.006 0 0.011 0 0.017v-0.001 16.368c0 2.856 2.296 5.144 5.144 5.144h85.712z"></path>
</symbol>
<symbol id="icon-icon-menu" viewBox="0 0 34 32">
<path d="M34.133 25.6v6.4h-34.133v-6.4h34.133zM34.133 12.8v6.4h-34.133v-6.4h34.133zM34.133 0v6.4h-34.133v-6.4h34.133z"></path>
</symbol>
<symbol id="icon-icon-cart" viewBox="0 0 35 32">
<path d="M33.48 5.826h-27.299l-0.405-4.52c-0.068-0.735-0.681-1.306-1.428-1.306-0 0-0.001 0-0.001 0h-2.912c-0.792 0-1.434 0.642-1.434 1.434s0.642 1.434 1.434 1.434v0h1.6l1.65 18.373c0.117 1.325 0.832 2.762 2.066 3.738-2.222 2.838-0.192 7.022 3.424 7.022 3 0 5.115-2.992 4.086-5.827h7.848c-1.027 2.832 1.083 5.827 4.088 5.827 2.4-0.003 4.344-1.947 4.347-4.347v-0c-0.003-2.4-1.947-4.344-4.347-4.347h-16.013c-1.090 0-2.038-0.656-2.448-1.614l22.914-1.347c0.633-0.038 1.153-0.482 1.305-1.073l0.002-0.010 2.914-11.653c0.027-0.104 0.043-0.224 0.043-0.347 0-0.792-0.642-1.435-1.435-1.435h-0zM10.173 29.133c-0.788-0.038-1.413-0.686-1.413-1.48s0.625-1.442 1.409-1.48l0.003-0c0.788 0.038 1.413 0.686 1.413 1.48s-0.625 1.442-1.409 1.48l-0.003 0zM26.197 29.133c-0.788-0.038-1.413-0.686-1.413-1.48s0.625-1.442 1.409-1.48l0.003-0c0.788 0.038 1.413 0.686 1.413 1.48s-0.625 1.442-1.409 1.48l-0.003 0zM29.43 17.544l-22.080 1.296-0.912-10.146h25.205l-2.213 8.848z"></path>
</symbol>
<symbol id="icon-icon-close" viewBox="0 0 30 32">
<path d="M24.738 1.668l4.527 4.527-9.809 9.803 9.807 9.807-4.527 4.527-9.803-9.809-9.803 9.807-4.527-4.527 9.803-9.803-9.805-9.805 4.527-4.527 9.803 9.805 9.807-9.805z"></path>
</symbol>
<symbol id="icon-icon-delete" viewBox="0 0 28 32">
<path d="M0 5.25v-1.75c0-0.832 0.668-1.5 1.5-1.5h7l0.588-1.168c0.246-0.497 0.75-0.832 1.332-0.832 0.002 0 0.004 0 0.006 0h7.142c0 0 0.001 0 0.001 0 0.585 0 1.092 0.335 1.339 0.823l0.004 0.009 0.588 1.168h7c0.832 0 1.5 0.668 1.5 1.5v1.75c-0.001 0.414-0.336 0.749-0.75 0.75h-26.5c-0.414-0.001-0.749-0.336-0.75-0.75v-0zM26 8.75v20.25c0 1.657-1.343 3-3 3v0h-18c-1.657 0-3-1.343-3-3v0-20.25c0-0.412 0.338-0.75 0.75-0.75h22.5c0.412 0 0.75 0.338 0.75 0.75zM9 13c0-0.55-0.45-1-1-1s-1 0.45-1 1v14c0 0.55 0.45 1 1 1s1-0.45 1-1v-14zM15 13c0-0.55-0.45-1-1-1s-1 0.45-1 1v14c0 0.55 0.45 1 1 1s1-0.45 1-1v-14zM21 13c0-0.55-0.45-1-1-1s-1 0.45-1 1v14c0 0.55 0.45 1 1 1s1-0.45 1-1v-14z"></path>
</symbol>
</defs>
</svg>
